<svg width="18" height="18" viewBox="0 0 18 18" fill="none" xmlns="http://www.w3.org/2000/svg">
<path d="M9.00004 4.72925L2.58042 10.0215C2.58042 10.029 2.57854 10.04 2.57478 10.055C2.57111 10.0698 2.56915 10.0806 2.56915 10.0883V15.4473C2.56915 15.6408 2.63989 15.8085 2.78134 15.9497C2.92274 16.091 3.09019 16.1621 3.28372 16.1621H7.57082V11.8747H10.4293V16.1622H14.7164C14.9099 16.1622 15.0775 16.0913 15.2187 15.9497C15.3602 15.8086 15.4312 15.6408 15.4312 15.4473V10.0883C15.4312 10.0586 15.4271 10.0361 15.4199 10.0215L9.00004 4.72925Z" fill="#2E2B28"/>
<path d="M17.8759 8.81573L15.4309 6.78375V2.2285C15.4309 2.12437 15.3975 2.03873 15.3303 1.9717C15.2636 1.90475 15.178 1.87128 15.0736 1.87128H12.93C12.8258 1.87128 12.7402 1.90475 12.6731 1.9717C12.6062 2.03873 12.5728 2.1244 12.5728 2.2285V4.40561L9.84862 2.12792C9.61071 1.93439 9.32782 1.83765 9.00028 1.83765C8.67277 1.83765 8.38992 1.93439 8.15177 2.12792L0.124063 8.81573C0.0496463 8.87517 0.00885957 8.95518 0.00127317 9.05568C-0.00627414 9.1561 0.0197308 9.24382 0.0793662 9.31819L0.771567 10.1444C0.831203 10.2114 0.909257 10.2523 1.00604 10.2673C1.0954 10.2748 1.18475 10.2487 1.27411 10.1891L9.00004 3.74688L16.7261 10.1891C16.7857 10.241 16.8637 10.267 16.9605 10.267H16.9941C17.0907 10.2523 17.1686 10.211 17.2286 10.1443L17.9208 9.31816C17.9804 9.24362 18.0064 9.15606 17.9987 9.05553C17.9911 8.9553 17.9501 8.87529 17.8759 8.81573Z" fill="#2E2B28"/>
</svg>
