<svg width="18" height="16" viewBox="0 0 18 16" fill="none" xmlns="http://www.w3.org/2000/svg">
<path d="M17.719 10.8526C17.5315 10.6652 17.3038 10.5714 17.0358 10.5714H16.0717V8.64275C16.0717 8.29459 15.9444 7.99308 15.69 7.73875C15.4356 7.48417 15.134 7.35696 14.7859 7.35696H9.64304V5.42836H10.6072C10.8752 5.42836 11.1028 5.33463 11.2903 5.14711C11.4778 4.9597 11.5714 4.73204 11.5714 4.46409V1.24987C11.5714 0.981999 11.4778 0.754267 11.2903 0.566853C11.1028 0.379334 10.8752 0.285645 10.6072 0.285645H7.39291C7.12503 0.285645 6.89741 0.379334 6.70989 0.566853C6.52237 0.754267 6.42871 0.981964 6.42871 1.24987V4.46409C6.42871 4.73204 6.52237 4.95959 6.70989 5.14711C6.8973 5.33463 7.12503 5.42836 7.39291 5.42836H8.35717V7.35696H3.21432C2.86609 7.35696 2.56479 7.48428 2.31025 7.73875C2.05578 7.99308 1.9286 8.29459 1.9286 8.64275V10.5714H0.964195C0.696425 10.5714 0.468693 10.6652 0.281174 10.8526C0.0936894 11.0401 0 11.2677 0 11.5356V14.7498C0 15.0178 0.0936894 15.2455 0.281174 15.4329C0.468693 15.6204 0.696425 15.7141 0.964195 15.7141H4.17859C4.44636 15.7141 4.67409 15.6203 4.86161 15.4329C5.04913 15.2455 5.14278 15.0178 5.14278 14.7498V11.5356C5.14278 11.2677 5.04913 11.0401 4.86161 10.8526C4.67409 10.6652 4.44636 10.5714 4.17859 10.5714H3.21422V8.64275H8.35707V10.5714H7.3928C7.12493 10.5714 6.8973 10.6652 6.70978 10.8526C6.52226 11.0401 6.42861 11.2677 6.42861 11.5356V14.7498C6.42861 15.0178 6.52226 15.2455 6.70978 15.4329C6.8972 15.6204 7.12493 15.7141 7.3928 15.7141H10.6071C10.8751 15.7141 11.1026 15.6203 11.2902 15.4329C11.4776 15.2453 11.5715 15.0178 11.5715 14.7498V11.5356C11.5715 11.2677 11.4778 11.0401 11.2902 10.8526C11.1026 10.6652 10.8751 10.5714 10.6071 10.5714H9.64293V8.64275H14.7859V10.5714H13.8215C13.5537 10.5714 13.3259 10.6652 13.1384 10.8526C12.951 11.0401 12.8574 11.2677 12.8574 11.5356V14.7498C12.8574 15.0178 12.951 15.2455 13.1384 15.4329C13.3259 15.6204 13.5537 15.7141 13.8215 15.7141H17.0359C17.3036 15.7141 17.5313 15.6203 17.7188 15.4329C17.9063 15.2455 18 15.0178 18 14.7498V11.5356C18 11.2677 17.9063 11.0401 17.719 10.8526Z" fill="#2E2B28"/>
</svg>
